<?xml version="1.0" encoding="utf-8"?>
<!-- Generator: Adobe Illustrator 17.0.1, SVG Export Plug-In . SVG Version: 6.00 Build 0)  -->
<!DOCTYPE svg PUBLIC "-//W3C//DTD SVG 1.1 Tiny//EN" "http://www.w3.org/Graphics/SVG/1.1/DTD/svg11-tiny.dtd">
<svg version="1.1" baseProfile="tiny" id="Layer_1" xmlns="http://www.w3.org/2000/svg" xmlns:xlink="http://www.w3.org/1999/xlink"
	 x="0px" y="0px" width="35px" height="35px" viewBox="0 0 35 35" overflow="scroll" xml:space="preserve">
<path fill="#AAB4BD" d="M17.5,0C7.835,0,0,7.835,0,17.5C0,27.165,7.835,35,17.5,35C27.165,35,35,27.165,35,17.5
	C35,7.835,27.165,0,17.5,0z M17.5,5.833c2.685,0,4.861,2.176,4.861,4.861c0,2.685-2.176,4.861-4.861,4.861
	c-2.685,0-4.861-2.176-4.861-4.861C12.639,8.01,14.815,5.833,17.5,5.833z M17.5,17.5c4.296,0,7.778,3.482,7.778,7.778
	c0,4.295-3.482,3.889-7.778,3.889s-7.778,0.407-7.778-3.889C9.722,20.982,13.204,17.5,17.5,17.5z"/>
</svg>
