<?xml version="1.0" encoding="utf-8"?>
<!-- Generator: Adobe Illustrator 17.0.1, SVG Export Plug-In . SVG Version: 6.00 Build 0)  -->
<!DOCTYPE svg PUBLIC "-//W3C//DTD SVG 1.1//EN" "http://www.w3.org/Graphics/SVG/1.1/DTD/svg11.dtd">
<svg version="1.1" id="Layer_1" xmlns="http://www.w3.org/2000/svg" xmlns:xlink="http://www.w3.org/1999/xlink" x="0px" y="0px"
	 width="16px" height="16px" viewBox="0 0 16 16" enable-background="new 0 0 16 16" xml:space="preserve">
<g>
	<g>
		<path fill-rule="evenodd" clip-rule="evenodd" fill="#AAB4BD" d="M15.968,7.809c-0.038-0.199-0.115-0.393-0.27-0.547L12.751,4.32
			c-0.406-0.406-1.062-0.409-1.465-0.006c-0.403,0.402-0.4,1.058,0.007,1.464l1.27,1.268L5.005,7.042
			c-0.553-0.001-1,0.438-0.999,0.981s0.45,0.984,1.002,0.985l7.533,0.003l-1.263,1.255c-0.408,0.405-0.411,1.058-0.007,1.459
			c0.404,0.401,1.062,0.398,1.47-0.006l2.954-2.936c0.107-0.106,0.183-0.231,0.234-0.362c0.053-0.12,0.083-0.251,0.083-0.39
			C16.014,7.952,15.986,7.883,15.968,7.809z M4.991,14.024l-3.005-0.003L1.99,1.994l3.005,0.003c0.553,0.001,1-0.44,0.999-0.985
			c-0.001-0.545-0.45-0.988-1.002-0.989L1.12,0.02C1.081,0.015,1.046-0.004,1.005-0.003c-0.217,0-0.408,0.086-0.571,0.207
			C0.17,0.381-0.014,0.665-0.014,1.005c0,0.052,0.022,0.097,0.03,0.147L0.013,14.875c-0.006,0.044-0.026,0.083-0.026,0.129
			c0.001,0.394,0.239,0.728,0.578,0.887c0.132,0.066,0.276,0.112,0.433,0.112c0.017,0,0.032-0.009,0.049-0.01l3.948,0.004
			c0.553,0.001,1-0.44,0.999-0.985C5.992,14.468,5.544,14.025,4.991,14.024z"/>
	</g>
</g>
</svg>
