<?xml version="1.0" encoding="utf-8"?>
<!-- Generator: Adobe Illustrator 17.0.1, SVG Export Plug-In . SVG Version: 6.00 Build 0)  -->
<!DOCTYPE svg PUBLIC "-//W3C//DTD SVG 1.1//EN" "http://www.w3.org/Graphics/SVG/1.1/DTD/svg11.dtd">
<svg version="1.1" id="Layer_1" xmlns="http://www.w3.org/2000/svg" xmlns:xlink="http://www.w3.org/1999/xlink" x="0px" y="0px"
	 width="16px" height="16px" viewBox="0 0 16 16" enable-background="new 0 0 16 16" xml:space="preserve">
<g>
	<path fill="#4B5B64" d="M12.205,7.281c-0.032-0.032-0.074-0.046-0.109-0.073L5.195,0.295c-0.387-0.387-1.014-0.387-1.401,0
		s-0.387,1.014,0,1.401L10.087,8l-6.292,6.304c-0.387,0.387-0.387,1.014,0,1.401c0.387,0.387,1.014,0.387,1.401,0l6.901-6.914
		c0.035-0.027,0.077-0.04,0.109-0.073C12.404,8.521,12.497,8.26,12.492,8C12.497,7.74,12.404,7.479,12.205,7.281z"/>
</g>
</svg>
