<?xml version="1.0" encoding="utf-8"?>
<!-- Generator: Adobe Illustrator 17.0.1, SVG Export Plug-In . SVG Version: 6.00 Build 0)  -->
<!DOCTYPE svg PUBLIC "-//W3C//DTD SVG 1.1//EN" "http://www.w3.org/Graphics/SVG/1.1/DTD/svg11.dtd">
<svg version="1.1" id="Layer_1" xmlns="http://www.w3.org/2000/svg" xmlns:xlink="http://www.w3.org/1999/xlink" x="0px" y="0px"
	 width="16px" height="16px" viewBox="0 0 16 16" enable-background="new 0 0 16 16" xml:space="preserve">
<g>
	<path fill="#4B5B64" d="M5.913,8l6.292-6.304c0.387-0.387,0.387-1.014,0-1.401s-1.014-0.387-1.401,0l-6.9,6.914
		c-0.035,0.027-0.077,0.04-0.109,0.073C3.596,7.479,3.503,7.74,3.508,8C3.503,8.26,3.596,8.521,3.795,8.719
		c0.032,0.032,0.074,0.046,0.109,0.073l6.901,6.914c0.387,0.387,1.014,0.387,1.401,0c0.387-0.387,0.387-1.014,0-1.401L5.913,8z"/>
</g>
</svg>
