<?xml version="1.0" encoding="utf-8"?>
<!-- Generator: Adobe Illustrator 17.0.1, SVG Export Plug-In . SVG Version: 6.00 Build 0)  -->
<!DOCTYPE svg PUBLIC "-//W3C//DTD SVG 1.1//EN" "http://www.w3.org/Graphics/SVG/1.1/DTD/svg11.dtd">
<svg version="1.1" id="Layer_1" xmlns="http://www.w3.org/2000/svg" xmlns:xlink="http://www.w3.org/1999/xlink" x="0px" y="0px"
	 width="18px" height="16px" viewBox="0 0 18 16" enable-background="new 0 0 18 16" xml:space="preserve">
<g>
	<path id="answer" fill="#5395b2" d="M18,10c0-0.019-0.009-0.034-0.01-0.053c0-0.018-0.009-0.036-0.011-0.054
		c-0.027-0.255-0.135-0.476-0.312-0.635l-2.073-2.009c-0.371-0.358-0.971-0.36-1.339-0.006s-0.365,0.931,0.006,1.289L14.743,9H13V5
		L9,0H2C0.882,0,0,0.895,0,2v12c0,1.104,0.882,2,2,2h9c1.118,0,2-0.896,2-2v-3h1.695l-0.422,0.412
		c-0.37,0.359-0.373,0.938-0.006,1.294c0.367,0.356,0.965,0.353,1.335-0.006l1.89-1.843C17.792,10.688,17.999,10.38,18,10z M9,3l2,2
		H9V3z M1.929,14.003V1.92h5.143L7,7h4c0,0.031,0.001,0.421,0.001,1H11v1H9c-0.562,0.001-0.999,0.435-1,1
		c-0.001,0.565,0.438,1.001,1,1h2v0.242c0,1.271,0,2.42,0,2.758H2C1.973,14,1.954,14.002,1.929,14.003z"/>
</g>
</svg>
