<?xml version="1.0" encoding="utf-8"?>
<!-- Generator: Adobe Illustrator 17.0.1, SVG Export Plug-In . SVG Version: 6.00 Build 0)  -->
<!DOCTYPE svg PUBLIC "-//W3C//DTD SVG 1.1 Tiny//EN" "http://www.w3.org/Graphics/SVG/1.1/DTD/svg11-tiny.dtd">
<svg version="1.1" baseProfile="tiny" id="Layer_1" xmlns="http://www.w3.org/2000/svg" xmlns:xlink="http://www.w3.org/1999/xlink"
	 x="0px" y="0px" width="12px" height="12px" viewBox="0 0 12 12" overflow="scroll" xml:space="preserve">
<g>
	<path fill-rule="evenodd" fill="#52636D" d="M11.297,3.196c-0.266-0.258-0.697-0.258-0.963,0L6,7.391L1.666,3.196
		c-0.266-0.258-0.697-0.258-0.963,0c-0.266,0.258-0.266,0.676,0,0.934l4.753,4.601c0.018,0.023,0.028,0.051,0.05,0.073
		C5.642,8.936,5.821,8.998,6,8.995c0.179,0.003,0.358-0.059,0.494-0.191c0.022-0.021,0.031-0.049,0.05-0.073l4.753-4.601
		C11.563,3.872,11.563,3.454,11.297,3.196z"/>
</g>
</svg>
