<?xml version="1.0" encoding="utf-8"?>
<!-- Generator: Adobe Illustrator 17.0.1, SVG Export Plug-In . SVG Version: 6.00 Build 0)  -->
<!DOCTYPE svg PUBLIC "-//W3C//DTD SVG 1.1//EN" "http://www.w3.org/Graphics/SVG/1.1/DTD/svg11.dtd">
<svg version="1.1" id="Layer_1" xmlns="http://www.w3.org/2000/svg" xmlns:xlink="http://www.w3.org/1999/xlink" x="0px" y="0px"
	 width="8px" height="8px" viewBox="0 0 8 8" enable-background="new 0 0 8 8" xml:space="preserve">
<path opacity="0.6" fill-rule="evenodd" clip-rule="evenodd" fill="#FFFFFF" d="M7.992,7.04c-0.01,0.242-0.1,0.482-0.285,0.667
	C7.521,7.891,7.282,7.982,7.04,7.991C6.77,8.003,6.498,7.912,6.292,7.706L4,5.414L1.708,7.706C1.502,7.912,1.23,8.003,0.96,7.991
	c-0.242-0.01-0.482-0.1-0.667-0.285S0.018,7.282,0.008,7.04c-0.011-0.27,0.079-0.542,0.285-0.747L2.586,4L0.294,1.708
	C0.088,1.502-0.003,1.23,0.008,0.96c0.01-0.242,0.1-0.482,0.285-0.667C0.479,0.109,0.718,0.018,0.96,0.009
	C1.23-0.003,1.502,0.088,1.708,0.294L4,2.586l2.292-2.292C6.498,0.088,6.77-0.003,7.04,0.009c0.242,0.01,0.482,0.1,0.666,0.285
	C7.891,0.479,7.982,0.718,7.992,0.96c0.011,0.27-0.079,0.542-0.285,0.747L5.414,4l2.292,2.292C7.912,6.498,8.003,6.77,7.992,7.04z"
	/>
</svg>
