<?xml version="1.0" encoding="utf-8"?>
<!-- Generator: Adobe Illustrator 17.0.1, SVG Export Plug-In . SVG Version: 6.00 Build 0)  -->
<!DOCTYPE svg PUBLIC "-//W3C//DTD SVG 1.1//EN" "http://www.w3.org/Graphics/SVG/1.1/DTD/svg11.dtd">
<svg version="1.1" id="Layer_1" xmlns="http://www.w3.org/2000/svg" xmlns:xlink="http://www.w3.org/1999/xlink" x="0px" y="0px"
	 width="24px" height="24px" viewBox="0 0 24 24" enable-background="new 0 0 24 24" xml:space="preserve">
<path fill="#fff" d="M18,21.5c-3.314,0-6-2.686-6-6s2.686-6,6-6s6,2.686,6,6S21.314,21.5,18,21.5z M19,14.5v-3h-2v3h-3v2h3v3h2
	v-3h3v-2H19z M17,8.582V7.803l-1.833,1.314c-0.854,0.386-1.619,0.939-2.255,1.617l-2.902,2.081
	c-0.166,0.119-0.381,0.094-0.526-0.037c-0.146,0.131-0.361,0.156-0.527,0.037L2,7.828V12.5c0,0.96,1.048,2,2,2h7.082
	C11.034,14.828,11,15.16,11,15.5c0,0.31,0.028,0.613,0.068,0.913H2.586C1.158,16.413,0,15.245,0,13.804v-7.41V5.109l0.13-0.777
	C0.459,3.273,1.428,2.5,2.586,2.5h13.793c1.158,0,2.127,0.773,2.457,1.832l0.13,0.777v1.286v2.182C18.649,8.531,18.328,8.5,18,8.5
	C17.66,8.5,17.328,8.534,17,8.582z M17,5.5c0-0.96-0.048-1-1-1H3c-0.952,0-1,0.04-1,1v0.173l7.483,5.365L17,5.648V5.5z"/>
</svg>
