<?xml version="1.0" encoding="utf-8"?>
<!-- Generator: Adobe Illustrator 17.0.1, SVG Export Plug-In . SVG Version: 6.00 Build 0)  -->
<!DOCTYPE svg PUBLIC "-//W3C//DTD SVG 1.1//EN" "http://www.w3.org/Graphics/SVG/1.1/DTD/svg11.dtd">
<svg version="1.1" id="Layer_1" xmlns="http://www.w3.org/2000/svg" xmlns:xlink="http://www.w3.org/1999/xlink" x="0px" y="0px"
	 width="16px" height="16px" viewBox="0 0 16 16" enable-background="new 0 0 16 16" xml:space="preserve">
<g>
	<g>
		<path fill-rule="evenodd" clip-rule="evenodd" fill="#fff" d="M15.634,13.893l-2.888-2.888c0.792-1.134,1.26-2.511,1.26-4
			c0-3.866-3.134-7-7-7c-3.866,0-7,3.134-7,7c0,3.866,3.134,7,7,7c1.488,0,2.866-0.468,4-1.26l2.888,2.888
			c0.481,0.481,1.26,0.481,1.74,0C16.115,15.153,16.115,14.374,15.634,13.893z M7.005,12.005c-2.761,0-5-2.238-5-5
			c0-2.761,2.239-5,5-5c2.762,0,5,2.238,5,5C12.005,9.767,9.767,12.005,7.005,12.005z"/>
	</g>
</g>
</svg>
