<?xml version="1.0" encoding="utf-8"?>
<!DOCTYPE svg PUBLIC "-//W3C//DTD SVG 1.1 Tiny//EN" "http://www.w3.org/Graphics/SVG/1.1/DTD/svg11-tiny.dtd">
<svg version="1.1" baseProfile="tiny" id="Layer_1" xmlns="http://www.w3.org/2000/svg" xmlns:xlink="http://www.w3.org/1999/xlink"
	 x="0px" y="0px" width="16px" height="16px" viewBox="0 0 16 16" xml:space="preserve">
<path fill="#7B8391" d="M15.146,10.214c-0.241-0.187-0.988-0.692-2.281-1.557c-0.236-0.158-0.42-0.281-0.501-0.336
	c-0.385-0.262-0.795-0.395-1.217-0.395c-0.322,0-1.067,0.092-1.633,0.861C9.149,8.434,8.738,8.024,8.375,7.654L8.362,7.64
	L8.348,7.626C7.977,7.264,7.567,6.854,7.214,6.49c0.511-0.375,0.72-0.824,0.804-1.161C8.099,5.003,8.163,4.352,7.68,3.643
	C7.625,3.562,7.502,3.379,7.345,3.145c-0.868-1.294-1.373-2.04-1.561-2.282C5.232,0.154,4.589,0.005,4.147,0.005
	c-0.361,0-0.652,0.098-0.863,0.17l-0.07,0.023C2.7,0.369,2.171,0.589,1.377,1.383c-1.534,1.533-1.781,3.336-0.778,5.676
	c0.96,2.238,3.255,4.567,3.514,4.825c0.259,0.258,2.591,2.551,4.831,3.51c0.946,0.405,1.783,0.602,2.559,0.602
	c1.173,0,2.194-0.451,3.123-1.379c0.794-0.793,1.014-1.321,1.186-1.836l0.023-0.069C15.966,12.328,16.364,11.159,15.146,10.214z
	 M14.267,12.267c-0.108,0.324-0.216,0.624-0.792,1.199c-0.534,0.533-1.123,0.902-1.971,0.902c-0.524,0-1.147-0.141-1.917-0.47
	c-2.016-0.863-4.321-3.165-4.321-3.165S2.961,8.431,2.097,6.417c-0.864-2.014-0.432-3.02,0.432-3.884
	C3.105,1.958,3.405,1.85,3.73,1.742c0.184-0.061,0.309-0.11,0.417-0.11c0.12,0,0.218,0.06,0.351,0.23
	c0.25,0.321,1.607,2.361,1.836,2.697c0.204,0.3,0.133,0.518-0.228,0.707C5.602,5.53,4.783,6.059,4.977,6.417
	C5.206,6.836,7.21,8.79,7.21,8.79s1.956,2.002,2.376,2.23c0.037,0.02,0.075,0.03,0.115,0.03c0.349,0,0.8-0.705,1.036-1.157
	c0.12-0.228,0.251-0.34,0.408-0.34c0.091,0,0.19,0.038,0.3,0.113c0.337,0.229,2.379,1.584,2.7,1.834
	C14.471,11.751,14.396,11.881,14.267,12.267z"/>
</svg>
