<?xml version="1.0" encoding="utf-8"?>
<!-- Generator: Adobe Illustrator 17.0.1, SVG Export Plug-In . SVG Version: 6.00 Build 0)  -->
<!DOCTYPE svg PUBLIC "-//W3C//DTD SVG 1.1//EN" "http://www.w3.org/Graphics/SVG/1.1/DTD/svg11.dtd">
<svg version="1.1" id="Layer_1" xmlns="http://www.w3.org/2000/svg" xmlns:xlink="http://www.w3.org/1999/xlink" x="0px" y="0px"
	 width="10px" height="10px" viewBox="0 0 10 10" enable-background="new 0 0 10 10" xml:space="preserve">
<g>
	<g>
		<path fill-rule="evenodd" clip-rule="evenodd" fill="#5395B2" d="M8.718,5.114C8.314,4.698,7.656,4.701,7.249,5.121L5.985,6.424
			l0.019-5.423c0.001-0.571-0.455-1.001-1-1c-0.545,0.001-0.999,0.429-1,1l0,5.409L2.745,5.107C2.339,4.686,1.683,4.683,1.281,5.101
			c-0.402,0.418-0.4,1.098,0.006,1.519l2.946,3.052C4.34,9.782,4.465,9.86,4.597,9.913c0.12,0.054,0.252,0.086,0.391,0.086
			c0.078,0,0.147-0.029,0.22-0.047c0.201-0.039,0.396-0.119,0.552-0.279l2.953-3.045C9.119,6.208,9.122,5.53,8.718,5.114z"/>
	</g>
</g>
</svg>
