<?xml version="1.0" encoding="utf-8"?>
<!DOCTYPE svg PUBLIC "-//W3C//DTD SVG 1.1 Basic//EN" "http://www.w3.org/Graphics/SVG/1.1/DTD/svg11-basic.dtd">
<svg version="1.1" baseProfile="basic" id="Layer_1"
	 xmlns="http://www.w3.org/2000/svg" xmlns:xlink="http://www.w3.org/1999/xlink" x="0px" y="0px" width="14px" height="14px"
	 viewBox="0 0 14 14" xml:space="preserve">
<g>
	<path fill="#AAB4BD" d="M10.969,13.713c-0.097,0-0.194-0.023-0.283-0.07l-3.667-1.928l-3.667,1.928
		c-0.205,0.108-0.453,0.09-0.64-0.046c-0.187-0.136-0.281-0.367-0.242-0.595l0.7-4.084L0.203,6.026
		C0.037,5.864-0.023,5.623,0.049,5.403C0.12,5.182,0.31,5.022,0.54,4.989L4.64,4.393l1.834-3.716
		C6.576,0.47,6.787,0.339,7.019,0.339S7.462,0.47,7.564,0.678l1.834,3.716l4.1,0.596c0.229,0.033,0.419,0.194,0.491,0.414
		c0.072,0.22,0.012,0.462-0.154,0.623l-2.967,2.892l0.7,4.084c0.039,0.228-0.055,0.459-0.242,0.595
		C11.221,13.674,11.095,13.713,10.969,13.713z M7.019,10.42c0.097,0,0.194,0.023,0.283,0.07l2.86,1.504L9.616,8.809
		C9.582,8.612,9.648,8.41,9.791,8.271l2.314-2.256L8.907,5.551C8.709,5.522,8.538,5.397,8.449,5.218L7.019,2.32l-1.43,2.898
		C5.5,5.398,5.329,5.522,5.131,5.551L1.934,6.015l2.314,2.256c0.143,0.14,0.209,0.341,0.175,0.538l-0.546,3.185l2.86-1.504
		C6.825,10.443,6.922,10.42,7.019,10.42z"/>
</g>
</svg>
